<!DOCTYPE svg PUBLIC "-//W3C//DTD SVG 1.1//EN" "http://www.w3.org/Graphics/SVG/1.1/DTD/svg11.dtd">
<!-- Uploaded to: SVG Repo, www.svgrepo.com, Transformed by: SVG Repo Mixer Tools -->
<svg fill="#323643" width="800px" height="800px" viewBox="0 0 24 24" xmlns="http://www.w3.org/2000/svg" stroke="#323643">
<g id="SVGRepo_bgCarrier" stroke-width="0"/>
<g id="SVGRepo_tracerCarrier" stroke-linecap="round" stroke-linejoin="round"/>
<g id="SVGRepo_iconCarrier">
<path d="M2,7V21a1,1,0,0,0,1,1H13V6H3A1,1,0,0,0,2,7ZM5,9h5v2H5Zm0,4h5v2H5Zm0,4h5v2H5ZM22,3V21a1,1,0,0,1-1,1H15V4H10V3a1,1,0,0,1,1-1H21A1,1,0,0,1,22,3Z"/>
</g>
</svg>