<!DOCTYPE svg PUBLIC "-//W3C//DTD SVG 1.1//EN" "http://www.w3.org/Graphics/SVG/1.1/DTD/svg11.dtd">
<!-- Uploaded to: SVG Repo, www.svgrepo.com, Transformed by: SVG Repo Mixer Tools -->
<svg version="1.1" id="Icons" xmlns="http://www.w3.org/2000/svg" xmlns:xlink="http://www.w3.org/1999/xlink" viewBox="0 0 32 32" xml:space="preserve" width="800px" height="800px" fill="#003087" stroke="#003087">
<g id="SVGRepo_bgCarrier" stroke-width="0"/>
<g id="SVGRepo_tracerCarrier" stroke-linecap="round" stroke-linejoin="round"/>
<g id="SVGRepo_iconCarrier"> <style type="text/css"> .st0{fill:none;stroke:#000000;stroke-width:2;stroke-linecap:round;stroke-linejoin:round;stroke-miterlimit:10;} </style> <g> <path d="M18,14h-4c-0.6,0-1-0.4-1-1V3c0-1.7,1.3-3,3-3s3,1.3,3,3v10C19,13.6,18.6,14,18,14z"/> </g> <g> <path d="M24.7,20l-0.3-1.6C24,17,22.8,16,21.4,16H10.6c-1.4,0-2.6,1-2.9,2.4L7.3,20H24.7z"/> <path d="M6.9,22L5,30.8c-0.1,0.3,0,0.6,0.2,0.8C5.4,31.9,5.7,32,6,32h4v-5c0-0.6,0.4-1,1-1s1,0.4,1,1v5h8v-3c0-0.6,0.4-1,1-1 s1,0.4,1,1v3h4c0.3,0,0.6-0.1,0.8-0.4c0.2-0.2,0.3-0.5,0.2-0.8L25.1,22H6.9z"/> </g> </g>
</svg>