<!DOCTYPE svg PUBLIC "-//W3C//DTD SVG 1.1//EN" "http://www.w3.org/Graphics/SVG/1.1/DTD/svg11.dtd">
<!-- Uploaded to: SVG Repo, www.svgrepo.com, Transformed by: SVG Repo Mixer Tools -->
<svg fill="#323643" height="800px" width="800px" version="1.1" id="Capa_1" xmlns="http://www.w3.org/2000/svg" xmlns:xlink="http://www.w3.org/1999/xlink" viewBox="0 0 350.017 350.017" xml:space="preserve">
<g id="SVGRepo_bgCarrier" stroke-width="0"/>
<g id="SVGRepo_tracerCarrier" stroke-linecap="round" stroke-linejoin="round"/>
<g id="SVGRepo_iconCarrier"> <g> <path d="M335.017,88.898h-110c-3.988,0-7.813,1.589-10.628,4.415l-72.405,72.699c-17.295,17.296-17.541,45.284-0.738,62.885H65.017 c-24.813,0-45,20.187-45,45c0,24.813,20.188,45,45,45h130c3.402,0,6.541-1.135,9.059-3.044c0.543-0.412,1.063-0.863,1.55-1.35 L311.23,208.899h23.787c8.284,0,15-6.716,15-15v-90.001C350.017,95.614,343.301,88.898,335.017,88.898z M320.017,178.899h-15 c-3.978,0-7.793,1.58-10.607,4.393L188.804,288.897H65.017c-8.271,0-15-6.729-15-15s6.729-15,15-15h105.148 c3.979,0,7.794-1.581,10.607-4.394l24.685-24.687c0.007-0.006,0.013-0.012,0.019-0.019l25.295-25.295v-0.001 c5.857-5.858,5.857-15.355-0.001-21.213c-5.858-5.857-15.356-5.857-21.214,0.001l-25.253,25.254 c-2.819,2.765-6.546,4.287-10.499,4.287c-4.008,0-7.774-1.56-10.607-4.392c-5.848-5.849-5.848-15.367,0.022-21.237l68.029-68.305 h88.77V178.899z"/> <path d="M62.863,157.086c2.229,1.208,4.688,1.812,7.146,1.812s4.916-0.604,7.144-1.811c24.274-13.149,41.857-28.146,52.259-44.576 c12.293-19.414,11.717-35.947,9.067-46.398C133.257,45.51,115.542,31.12,95.398,31.12c-9.214,0-17.938,3.083-25.387,8.774 c-7.446-5.691-16.168-8.774-25.381-8.774c-20.137,0-37.848,14.389-43.07,34.991c-2.649,10.451-3.229,26.983,9.059,46.397 C21.018,128.939,38.595,143.937,62.863,157.086z M30.64,73.483c2.058-8.116,8.596-12.363,13.99-12.363 c5.931,0,10.109,4.812,12.57,8.849c2.723,4.466,7.574,7.191,12.805,7.192c0.002,0,0.002,0,0.003,0 c5.229,0,10.081-2.724,12.806-7.188c2.463-4.039,6.646-8.854,12.584-8.854c5.4,0,11.943,4.247,14,12.363 c3.232,12.751-5.706,33.025-39.389,53.161C36.338,106.51,27.408,86.235,30.64,73.483z"/> </g> </g>
</svg>