<!DOCTYPE svg PUBLIC "-//W3C//DTD SVG 1.1//EN" "http://www.w3.org/Graphics/SVG/1.1/DTD/svg11.dtd">
<!-- Uploaded to: SVG Repo, www.svgrepo.com, Transformed by: SVG Repo Mixer Tools -->
<svg fill="#323643" height="800px" width="800px" version="1.1" id="Layer_1" xmlns="http://www.w3.org/2000/svg" xmlns:xlink="http://www.w3.org/1999/xlink" viewBox="0 0 512 512" xml:space="preserve" stroke="#323643">
<g id="SVGRepo_bgCarrier" stroke-width="0"/>
<g id="SVGRepo_tracerCarrier" stroke-linecap="round" stroke-linejoin="round"/>
<g id="SVGRepo_iconCarrier"> <g> <g> <g> <path d="M373.333,39.673c-27.389,0-49.958,20.671-52.978,47.255l-216.15,54.037c-6.812-21.611-27.016-37.292-50.872-37.292 C23.887,103.673,0,127.56,0,157.006v192c0,29.446,23.887,53.333,53.333,53.333c23.856,0,44.06-15.681,50.872-37.292l15.826,3.956 l-12.393,44.422c-3.225,11.561,3.718,23.506,15.36,26.425l126.933,31.829c11.555,2.897,23.244-4.23,25.96-15.829l10.592-45.235 l33.871,8.468c3.021,26.584,25.589,47.255,52.978,47.255c29.446,0,53.333-23.887,53.333-53.333v-320 C426.667,63.56,402.779,39.673,373.333,39.673z M64,349.006c0,5.882-4.785,10.667-10.667,10.667 c-5.882,0-10.667-4.785-10.667-10.667v-192c0-5.882,4.785-10.667,10.667-10.667c5.882,0,10.667,4.785,10.667,10.667v10.667 V338.34V349.006z M106.667,184.33L320,130.996v244.02l-44.055-11.014c-0.041-0.01-0.079-0.026-0.12-0.036l-124.181-31.04 c-0.007-0.002-0.014-0.002-0.021-0.004l-44.956-11.239V184.33z M239.29,425.025l-84.668-21.231l6.817-24.438l83.648,20.912 L239.29,425.025z M384,413.006c0,5.882-4.785,10.667-10.667,10.667c-5.882,0-10.667-4.785-10.667-10.667V402.34V103.673V93.006 c0-5.882,4.785-10.667,10.667-10.667c5.882,0,10.667,4.785,10.667,10.667V413.006z"/> <path d="M484.418,182.758l21.333-21.333c8.331-8.331,8.331-21.839,0-30.17c-8.331-8.331-21.839-8.331-30.17,0l-21.333,21.333 c-8.331,8.331-8.331,21.839,0,30.17S476.087,191.089,484.418,182.758z"/> <path d="M484.418,323.255c-8.331-8.331-21.839-8.331-30.17,0s-8.331,21.839,0,30.17l21.333,21.333 c8.331,8.331,21.839,8.331,30.17,0c8.331-8.331,8.331-21.839,0-30.17L484.418,323.255z"/> <path d="M469.333,274.34h21.333c11.782,0,21.333-9.551,21.333-21.333c0-11.782-9.551-21.333-21.333-21.333h-21.333 c-11.782,0-21.333,9.551-21.333,21.333C448,264.788,457.551,274.34,469.333,274.34z"/> </g> </g> </g> </g>
</svg>