<!DOCTYPE svg PUBLIC "-//W3C//DTD SVG 1.1//EN" "http://www.w3.org/Graphics/SVG/1.1/DTD/svg11.dtd">
<!-- Uploaded to: SVG Repo, www.svgrepo.com, Transformed by: SVG Repo Mixer Tools -->
<svg fill="#566A7F" version="1.1" id="Layer_1" xmlns="http://www.w3.org/2000/svg" xmlns:xlink="http://www.w3.org/1999/xlink" viewBox="0 0 512 512" xml:space="preserve" width="800px" height="800px">
<g id="SVGRepo_bgCarrier" stroke-width="0"/>
<g id="SVGRepo_tracerCarrier" stroke-linecap="round" stroke-linejoin="round"/>
<g id="SVGRepo_iconCarrier"> <g> <g> <path d="M441.153,271.209c-1.784-21.92-17.003-40.092-37.398-46.24v-18.627H373.33v18.627 c-20.395,6.149-35.614,24.32-37.398,46.24h-48.975v-64.297c0-34.877-25.047-63.999-58.095-70.363 c4.813-8.416,7.581-18.147,7.581-28.517V89.087V78.192H121.171v10.895v18.946c0,10.37,2.767,20.101,7.581,28.517 c-33.048,6.363-58.095,35.486-58.095,70.363v64.297H0v54.477h512v-54.477H441.153z M194.019,224.788h-30.425v-61.172 c4.85,1.329,9.947,2.053,15.213,2.053s10.363-0.724,15.213-2.053V224.788z"/> </g> </g> <g> <g> <rect y="356.108" width="511.997" height="145.808"/> </g> </g> <g> <g> <rect x="121.174" y="10.084" width="115.271" height="37.687"/> </g> </g> </g>
</svg>