<!DOCTYPE svg PUBLIC "-//W3C//DTD SVG 1.1//EN" "http://www.w3.org/Graphics/SVG/1.1/DTD/svg11.dtd">
<!-- Uploaded to: SVG Repo, www.svgrepo.com, Transformed by: SVG Repo Mixer Tools -->
<svg fill="#697A8D" width="800px" height="800px" viewBox="0 0 24 24" xmlns="http://www.w3.org/2000/svg">
<g id="SVGRepo_bgCarrier" stroke-width="0"/>
<g id="SVGRepo_tracerCarrier" stroke-linecap="round" stroke-linejoin="round"/>
<g id="SVGRepo_iconCarrier">
<path d="M21,2.5H3a1,1,0,0,0-1,1v8a1,1,0,0,0,1,1H21a1,1,0,0,0,1-1v-8A1,1,0,0,0,21,2.5Zm-3,8H6a1,1,0,0,1,0-2H18a1,1,0,0,1,0,2Zm0-4H17a1,1,0,0,1,0-2h1a1,1,0,0,1,0,2Z"/>
<path d="M12.793,14.793l-2,2a1,1,0,0,0,0,1.414l.293.293L9.793,19.793a1,1,0,1,0,1.414,1.414l2-2a1,1,0,0,0,0-1.414l-.293-.293,1.293-1.293a1,1,0,0,0-1.414-1.414Z"/>
<path d="M18.293,14.793l-2,2a1,1,0,0,0,0,1.414l.293.293-1.293,1.293a1,1,0,1,0,1.414,1.414l2-2a1,1,0,0,0,0-1.414l-.293-.293,1.293-1.293a1,1,0,0,0-1.414-1.414Z"/>
<path d="M7.293,14.793l-2,2a1,1,0,0,0,0,1.414l.293.293L4.293,19.793a1,1,0,1,0,1.414,1.414l2-2a1,1,0,0,0,0-1.414L7.414,17.5l1.293-1.293a1,1,0,0,0-1.414-1.414Z"/>
</g>
</svg>