<!DOCTYPE svg PUBLIC "-//W3C//DTD SVG 1.1//EN" "http://www.w3.org/Graphics/SVG/1.1/DTD/svg11.dtd">
<!-- Uploaded to: SVG Repo, www.svgrepo.com, Transformed by: SVG Repo Mixer Tools -->
<svg version="1.1" id="_x32_" xmlns="http://www.w3.org/2000/svg" xmlns:xlink="http://www.w3.org/1999/xlink" viewBox="0 0 512 512" xml:space="preserve" width="800px" height="800px" fill="#000000">
<g id="SVGRepo_bgCarrier" stroke-width="0"/>
<g id="SVGRepo_tracerCarrier" stroke-linecap="round" stroke-linejoin="round"/>
<g id="SVGRepo_iconCarrier"> <style type="text/css"> .st0{fill:#697A8D;} </style> <g> <polygon class="st0" points="64.541,255.996 64.541,84.978 0,84.978 0,427.022 64.541,427.022 64.541,310.853 458.905,310.853 458.905,423.794 512,423.794 512,310.853 512,255.996 458.905,255.996 "/> <path class="st0" d="M113.489,234.481h29.02c15.151,0,27.44-12.281,27.44-27.44v-66.659c0-15.159-12.288-27.44-27.44-27.44h-29.02 c-15.159,0-27.44,12.281-27.44,27.44v66.659C86.049,222.2,98.33,234.481,113.489,234.481z"/> <rect x="189.307" y="150.581" class="st0" width="322.693" height="83.9"/> </g> </g>
</svg>